# xmcd CD database file
#
# Track frame offsets:
#	150
#	18337
#	34401
#	50399
#	63663
#	89969
#	108489
#	125699
#	143729
#	157900
#	179432
#	195819
#	217419
#	247281
#	264010
#	278421
#	292536
#	313657
#
# Disc length: 4423 seconds
#
# Revision: 1
# Processed by: cddbd v1.5.1PL0 Copyright (c) Steve Scherf et al.
# Submitted via: CDex 1.51
#
DISCID=0a114512
DTITLE=Michael Ramjoue - Harmonies - Melodien zum Träumen
DYEAR=1996
DGENRE=Meditative
TTITLE0=Harmony
TTITLE1=Joy
TTITLE2=Melancholy
TTITLE3=Eagle's Flight
TTITLE4=Fantasy
TTITLE5=Beauty
TTITLE6=Concerto
TTITLE7=Golden Heart
TTITLE8=Journey to the Inner
TTITLE9=Soul's Journey
TTITLE10=Together
TTITLE11=Daydream
TTITLE12=Winds of Change
TTITLE13=Voyage
TTITLE14=Endless Melody
TTITLE15=Flute of God
TTITLE16=Light and Sound
TTITLE17=Hymn
EXTD=YEAR: 1996
EXTT0=
EXTT1=
EXTT2=
EXTT3=
EXTT4=
EXTT5=
EXTT6=
EXTT7=
EXTT8=
EXTT9=
EXTT10=
EXTT11=
EXTT12=
EXTT13=
EXTT14=
EXTT15=
EXTT16=
EXTT17=
PLAYORDER=
